<svg width="76" height="45" viewBox="0 0 76 45" fill="none" xmlns="http://www.w3.org/2000/svg">
<path d="M51.8894 31.8361C50.5321 31.0961 47.9861 29.814 44.7559 28.6111C45.2258 26.9693 47.2173 20.6028 51.3623 15.4626L52.6522 13.8677L50.6015 13.831C43.9992 13.7018 37.8422 11.1352 36.2825 10.4399C37.4375 7.19247 38.0918 4.41781 38.3973 2.90227C51.2463 8.33074 61.8 7.86322 68.2822 6.57937C63.132 10.7198 55.99 18.5037 51.8894 31.8361ZM26.8925 25.8797C31.0097 22.0173 33.7835 16.8466 35.5942 12.2754C37.2863 13.0335 42.5975 15.2035 48.7306 15.6964C45.1659 20.7115 43.414 26.1749 42.9073 27.9585C38.2416 26.4075 32.4979 25.2086 26.8925 25.8797ZM38.0584 0.63116C37.7787 0.503116 36.9393 0.117577 36.9393 0.117577C36.9393 0.117577 36.7433 1.07185 36.6945 1.36798C36.6763 1.5127 35.1477 10.8395 30.0882 18.7442C30.5408 14.7779 28.8112 9.9118 24.7516 7.90478C22.1191 6.60277 18.844 6.97979 16.783 8.81784C14.5142 10.8387 14.0347 14.3967 15.7301 16.7686C16.7628 18.213 18.4461 18.9806 20.0038 18.6998C20.9425 18.521 21.8091 17.9006 22.3221 17.0437C22.7875 16.2663 22.8963 15.396 22.6303 14.6004L20.7763 15.2206C20.8893 15.5557 20.7396 15.8846 20.6395 16.0462C20.4172 16.4227 20.0389 16.6999 19.6501 16.7662C18.8614 16.9184 17.9011 16.446 17.3162 15.6265C16.207 14.074 16.558 11.6249 18.078 10.2695C19.565 8.9579 21.9476 8.69479 23.8877 9.6587C27.4429 11.4075 28.8549 16.2544 27.936 19.6724C27.2343 22.284 25.3904 24.696 22.8362 26.4529C22.3434 26.7841 21.8342 27.0943 21.3082 27.3818C21.0987 27.493 20.8861 27.6008 20.6696 27.7036L20.443 27.8093L20.4426 27.8095L0.768493 36.9837L1.59434 38.7547L21.4374 29.5017L21.4954 29.4747C21.7126 29.3746 21.9316 29.2814 22.1513 29.1925C22.7104 28.9742 23.2765 28.783 23.8479 28.6181C26.8351 27.7914 29.8671 27.9295 32.3184 29.0705C35.5275 30.5638 38.3327 34.7606 37.3872 38.6085C36.8784 40.7139 35.1454 42.3701 33.185 42.6666C31.1694 42.959 29.0677 41.654 28.5914 39.8064C28.3395 38.8313 28.5951 37.7924 29.2187 37.286C29.5193 37.0309 29.9748 36.9189 30.4063 36.9911C30.5944 37.0182 30.9422 37.1144 31.1266 37.4169L32.7934 36.3953C32.3549 35.68 31.6182 35.2039 30.7235 35.0605C29.7373 34.9026 28.7052 35.1681 27.9648 35.7722C26.7484 36.785 26.2542 38.5674 26.6971 40.2872C27.4241 43.1105 30.4581 45.0304 33.4645 44.5914C36.1972 44.1939 38.5914 41.9276 39.2862 39.0743C40.3581 34.6742 37.7422 30.2213 34.413 28.0182C43.7204 29.2237 51.8476 34.0477 51.9703 34.1269C52.2283 34.2796 53.0855 34.7432 53.0855 34.7432C53.0855 34.7432 53.3298 33.8524 53.4114 33.5557C59.7654 11.447 75.0569 4.47448 75.2226 4.39721L74.4151 2.66534C74.2533 2.74079 59.0789 9.97474 38.0584 0.63116Z" fill="white"/>
</svg>
