<svg width="47" height="65" viewBox="0 0 47 65" fill="none" xmlns="http://www.w3.org/2000/svg">
<path d="M45.0708 0.741883C44.6279 1.09395 44.0269 1.382 43.7422 1.382C43.4259 1.382 42.2872 1.73406 41.2117 2.15014C37.2895 3.62241 33.5254 4.35855 27.6103 4.77462C24.8584 4.96666 22.9289 4.61459 22.9289 3.87846C22.9289 3.71843 22.8024 3.65442 22.6126 3.78244C22.4228 3.87846 22.4544 4.26253 22.6759 4.77462L23.0554 5.57477L27.8001 5.44674C30.4255 5.38273 33.1458 5.15869 33.8417 4.96666C34.5376 4.77462 35.961 4.42256 37.0048 4.16651C40.1995 3.36636 42.0025 2.79026 43.331 2.11813C44.0269 1.73406 45.0708 1.25398 45.6401 1.02994C46.1778 0.773888 46.6523 0.485836 46.6523 0.357812C46.6523 -0.0902697 45.8932 0.101765 45.0708 0.741883Z" fill="#333333"/>
<path d="M29.4126 8.7756C32.2594 10.0558 35.9286 13.0964 37.1306 15.1768C38.554 17.5772 38.7438 18.3134 38.7438 21.2899C38.7438 23.4663 38.8387 24.1384 39.0917 23.8824C39.5978 23.3703 39.397 18.2363 38.9968 16.7451C38.6346 15.3951 37.4153 13.5445 37.099 13.5445C36.9724 13.5445 36.8459 13.3844 36.8459 13.1924C36.8459 12.8724 34.695 10.6639 34.4103 10.6639C34.3154 10.6639 33.8726 10.4079 33.4297 10.0558C32.9553 9.73578 32.2277 9.35171 31.7849 9.22368C31.3421 9.09566 30.9309 8.87162 30.836 8.7436C30.7411 8.61557 30.0452 8.39153 29.2544 8.29551L27.831 8.07147L29.4126 8.7756Z" fill="#333333"/>
<path d="M31.153 13.3524C30.2041 13.5764 28.6541 14.1205 27.7368 14.6006C25.9971 15.4648 22.9289 17.6732 22.9289 18.0572C22.9289 18.1853 22.4544 18.8254 21.9167 19.4655C20.778 20.7457 19.9239 22.6661 19.2597 25.3866C18.5005 28.5872 18.7852 31.7878 20.1137 34.8923C20.4616 35.6605 20.7147 36.4926 20.7147 36.7487C20.7147 37.0047 20.8729 37.2288 21.031 37.2288C21.2208 37.2288 21.3473 37.4208 21.3473 37.6128C21.3473 37.8369 21.8534 38.669 22.4544 39.4372C23.0554 40.2053 23.5615 40.9415 23.5615 41.1015C23.5615 41.2295 23.8462 41.4535 24.1941 41.5496C24.5421 41.6456 24.8268 41.9336 24.8268 42.1577C24.8268 42.7018 25.9022 43.95 26.3767 43.95C26.5665 43.95 26.7246 44.11 26.7246 44.3021C26.7246 44.4621 27.6419 45.5503 28.7807 46.6705C30.8683 48.7829 31.6275 49.135 29.8878 47.2146C29.3817 46.6385 28.9388 46.0304 28.9388 45.9024C28.9388 45.7423 28.5276 45.1342 27.9899 44.5581C27.4838 43.95 26.9777 43.0538 26.8512 42.5738C26.7563 42.0617 26.4716 41.5816 26.2185 41.4856C25.9655 41.3895 25.7757 41.0695 25.7757 40.7494C25.7757 40.3974 25.6492 40.0773 25.491 39.9493C25.3329 39.8533 25.0798 39.3092 24.9533 38.733C24.7635 37.8049 24.3207 36.6207 23.435 34.7003C23.2136 34.2202 23.087 31.8518 23.087 28.6192V23.3062L24.1941 21.3538C25.5543 18.9214 27.3573 16.873 29.2551 15.6248C30.0459 15.0807 30.7418 14.6006 30.8367 14.4726C30.9316 14.3766 31.6275 13.9925 32.4183 13.6084C34.0314 12.8403 33.6835 12.7763 31.153 13.3524Z" fill="#333333"/>
<path d="M23.2458 28.587C23.2458 29.4512 23.9733 33.0038 24.4478 34.5081C24.6376 35.0202 25.0171 36.3004 25.3335 37.3246C25.6181 38.3168 26.061 39.309 26.314 39.501C26.5354 39.6931 26.7252 40.1732 26.7252 40.5572C26.7252 40.9093 27.2313 41.8695 27.8323 42.6376C28.4333 43.4058 28.9394 44.2379 28.9394 44.462C28.9394 44.686 29.1292 45.0061 29.3506 45.1341C29.6037 45.2621 30.0465 45.8702 30.3944 46.4783C30.7108 47.0864 31.375 48.0146 31.8811 48.5587C32.3556 49.1028 32.7352 49.7109 32.7352 49.935C32.7352 50.127 33.0831 50.7031 33.5259 51.1832C33.9371 51.6313 34.8861 53.1996 35.582 54.6398C36.7523 57.0723 36.8472 57.4883 36.8472 59.8888C36.8472 61.3291 36.9421 62.5133 37.1003 62.5133C37.5431 62.5133 38.1125 59.9528 38.1125 57.9684C38.1125 55.856 37.1952 52.2074 36.183 50.351C35.835 49.7429 35.2657 48.6227 34.9177 47.8546C34.5381 47.1184 34.1269 46.5103 33.9688 46.5103C33.8106 46.5103 33.6841 46.3823 33.6841 46.1903C33.6841 45.7742 31.723 42.8937 31.2485 42.5736C31.0271 42.4456 30.8373 42.1895 30.8373 41.9975C30.8373 41.6774 30.6791 41.4534 29.4139 39.9811C28.971 39.469 28.6231 38.9569 28.6231 38.8609C28.6231 38.7649 28.3068 38.3168 27.8956 37.8687C26.8517 36.7165 23.8784 30.4114 23.8784 29.2912C23.8784 29.0031 23.7203 28.523 23.5621 28.267C23.3091 27.8829 23.2458 27.9469 23.2458 28.587Z" fill="#333333"/>
<path d="M10.15 48.3988C8.78987 49.327 7.77767 50.7032 7.74604 51.6954C7.74604 52.5916 7.33483 52.8796 6.95526 52.2715C6.67058 51.8234 4.70944 51.8874 3.88703 52.3355C2.74831 53.0076 1.45143 54.3839 1.10348 55.3121C0.945327 55.7601 0.78717 57.9365 0.78717 60.1449V64.1137H2.05242H3.31767V59.8569C3.3493 54.832 3.50746 54.4159 5.56349 54.5759C6.86037 54.6719 6.95526 54.736 7.3032 55.9522C7.52462 56.6563 7.71441 58.7687 7.71441 60.657L7.74604 64.1137H8.85313H9.96023V57.9365C9.96023 50.9272 10.0551 50.5432 12.0163 50.5432C12.8703 50.5432 13.3448 50.7352 13.7876 51.3113C14.3253 52.0155 14.3886 52.7196 14.3886 58.0966V64.1137H15.3375C16.2232 64.1137 16.2865 64.0177 16.2865 62.9935V61.8733H19.6078H22.929V62.9935C22.929 63.9857 23.0239 64.1137 23.7198 64.1137H24.5106V60.0169C24.5106 55.088 24.7636 54.5119 26.8513 54.5119C27.5788 54.5119 28.338 54.6719 28.5594 54.896C28.8124 55.152 28.939 56.6883 28.939 59.6969V64.1137H30.3307H31.6909L31.9123 60.657C32.1337 56.8163 31.9756 55.3441 31.0899 54.1919C29.1604 51.6634 25.6809 51.2153 23.5617 53.1997C23.1505 53.6157 23.0556 53.5197 22.929 52.2395C22.7709 50.7032 21.8536 49.0709 21.1577 49.0709C20.9046 49.0709 20.7148 48.9429 20.7148 48.8149C20.7148 48.4308 19.2598 47.7907 18.4058 47.7907C18.0262 47.7907 17.1405 48.1427 16.4763 48.5588L15.211 49.327L14.3886 48.6868C13.155 47.7907 11.2887 47.6626 10.15 48.3988ZM20.3353 51.2473C20.5883 51.5994 20.7148 53.0396 20.7148 55.8562V59.9529H18.5007H16.2548L16.2865 56.1762C16.3497 52.1755 16.6977 50.7672 17.7099 50.5752C18.6904 50.3831 19.8924 50.7032 20.3353 51.2473Z" fill="#333333"/>
</svg>
