<svg width="182" height="181" viewBox="0 0 182 181" fill="none" xmlns="http://www.w3.org/2000/svg">
<path d="M85.5878 175.565C85.3943 175.533 85.1405 175.493 84.8265 175.446C84.5125 175.4 84.2025 175.358 83.8967 175.322C83.4611 175.27 83.0435 175.225 82.6439 175.187C82.2442 175.149 81.961 175.12 81.7942 175.1C80.6727 174.967 79.8643 174.612 79.3688 174.036C78.8733 173.46 78.6735 172.769 78.7693 171.963C78.809 171.629 78.9065 171.284 79.0618 170.926C79.216 170.578 79.4508 170.263 79.7663 169.981C80.0714 169.707 80.4719 169.501 80.9677 169.362C81.4635 169.224 82.0729 169.198 82.7958 169.284L84.1304 169.442L84.0973 169.72L82.9018 169.578C82.2437 169.5 81.7284 169.566 81.3557 169.775C80.9738 169.983 80.6983 170.284 80.5294 170.678C80.3511 171.07 80.2339 171.503 80.1777 171.975C80.0731 172.856 80.1709 173.535 80.4713 174.012C80.7625 174.489 81.3297 174.777 82.1731 174.877C82.5995 174.928 82.8869 174.882 83.0353 174.74C83.1838 174.598 83.2867 174.286 83.344 173.804L84.1637 166.909C84.2034 166.575 84.2007 166.321 84.1557 166.146C84.1014 165.971 83.9756 165.843 83.7783 165.763C83.581 165.683 83.2888 165.611 82.9018 165.546L82.9348 165.268C83.1736 165.315 83.4783 165.361 83.8491 165.405C84.2187 165.458 84.5935 165.507 84.9735 165.553C85.3349 165.596 85.6738 165.631 85.99 165.659C86.3051 165.697 86.5611 165.718 86.7579 165.722L86.7248 166.001C86.4075 165.982 86.1668 165.991 86.0026 166.027C85.8292 166.063 85.7047 166.161 85.6293 166.321C85.5539 166.482 85.4963 166.729 85.4566 167.062L84.6369 173.958C84.5961 174.301 84.5942 174.554 84.6311 174.718C84.6668 174.892 84.7648 175.016 84.9251 175.092C85.0749 175.175 85.3068 175.24 85.6208 175.287L85.5878 175.565Z" fill="#FAF6EB" style="mix-blend-mode:difference"/>
<path d="M65.6843 172.848L68.5661 163.613C68.6828 163.239 68.6863 162.962 68.5766 162.781C68.4579 162.597 68.2159 162.448 67.8506 162.334L67.9382 162.054C68.0869 162.11 68.3158 162.191 68.6248 162.297C68.9222 162.41 69.2268 162.514 69.5386 162.612C69.8416 162.706 70.1517 162.793 70.4691 162.873C70.7837 162.961 71.0182 163.025 71.1724 163.063L71.0848 163.344C70.7195 163.23 70.4403 163.216 70.2471 163.302C70.0451 163.386 69.8856 163.615 69.7689 163.989L67.3875 171.62C67.2624 172.021 67.2419 172.337 67.3261 172.569C67.4075 172.809 67.6442 172.991 68.0362 173.113L67.9486 173.394C67.6719 173.278 67.3998 173.178 67.1325 173.095C66.8742 173.014 66.625 172.951 66.385 172.906C66.1333 172.866 65.8997 172.847 65.6843 172.848Z" fill="#FAF6EB" style="mix-blend-mode:difference"/>
<path d="M58.506 158.178C58.847 158.352 59.1104 158.565 59.2963 158.817C59.478 159.077 59.576 159.357 59.5904 159.658C59.5965 159.954 59.5212 160.256 59.3644 160.564C59.1779 160.93 58.9422 161.187 58.6572 161.335C58.3639 161.479 58.0482 161.554 57.7101 161.559C57.3719 161.565 57.034 161.54 56.6963 161.483C56.3461 161.43 56.0168 161.377 55.7083 161.325C55.3956 161.281 55.1264 161.275 54.9007 161.306C54.6668 161.334 54.501 161.443 54.4036 161.634L54.0095 162.408C53.8315 162.757 53.7499 163.051 53.7648 163.289C53.7714 163.523 53.8471 163.713 53.9921 163.86C54.1328 164.016 54.3113 164.149 54.5275 164.259C54.7354 164.365 54.9748 164.45 55.2456 164.515C55.5081 164.575 55.7567 164.55 55.9913 164.439C55.8502 164.325 55.7554 164.172 55.7068 163.98C55.6581 163.787 55.6868 163.587 55.7927 163.379C55.8987 163.171 56.05 163.039 56.2466 162.982C56.439 162.933 56.6391 162.962 56.847 163.068C57.0882 163.191 57.2288 163.357 57.2689 163.566C57.2965 163.779 57.2616 163.981 57.1641 164.172C57.054 164.389 56.9109 164.536 56.735 164.614C56.5591 164.692 56.3583 164.747 56.1327 164.778C55.8736 164.814 55.5711 164.801 55.2251 164.74C54.8666 164.683 54.496 164.557 54.1135 164.362C53.7725 164.188 53.5027 163.998 53.3039 163.792C53.1009 163.595 52.9585 163.381 52.8768 163.15C52.7623 162.841 52.7459 162.523 52.8277 162.198C52.9053 161.882 53.0458 161.524 53.2492 161.125L55.0163 157.657C55.1222 157.449 55.1694 157.285 55.1578 157.163C55.1379 157.038 55.0614 156.941 54.9284 156.874C54.8369 156.827 54.739 156.803 54.6346 156.803C54.5303 156.802 54.3966 156.817 54.2336 156.85L54.2044 156.568C54.4468 156.524 54.6704 156.496 54.875 156.485C55.0754 156.482 55.3086 156.549 55.5747 156.684C55.8159 156.807 55.9943 156.951 56.1099 157.114C56.2255 157.278 56.2846 157.46 56.2873 157.66C56.2774 157.865 56.2088 158.092 56.0817 158.341C56.4969 158.082 56.9092 157.941 57.3184 157.919C57.7193 157.893 58.1152 157.979 58.506 158.178ZM57.8027 158.448C57.5283 158.309 57.2344 158.258 56.921 158.298C56.5994 158.333 56.2624 158.46 55.9101 158.678L54.6642 161.123C54.836 161.032 55.043 160.986 55.2851 160.984C55.523 160.99 55.7796 161 56.055 161.015C56.3262 161.038 56.5996 161.035 56.8753 161.008C57.1384 160.985 57.3895 160.904 57.6285 160.764C57.8675 160.624 58.0717 160.387 58.2412 160.055C58.4108 159.722 58.459 159.411 58.3861 159.123C58.3049 158.83 58.1104 158.605 57.8027 158.448Z" fill="#FAF6EB" style="mix-blend-mode:difference"/>
<path d="M39.8894 155.292C39.6116 155.072 39.4103 154.852 39.2855 154.634C39.1534 154.41 39.0775 154.183 39.0576 153.953C39.0347 153.696 39.0811 153.435 39.1967 153.169C39.3122 152.904 39.5179 152.584 39.8138 152.212L42.1374 149.284C42.3811 148.976 42.4843 148.719 42.447 148.51C42.4025 148.296 42.2303 148.07 41.9306 147.833L42.1133 147.602C42.2318 147.708 42.4161 147.866 42.6662 148.077C42.9104 148.294 43.1532 148.499 43.3945 148.69C43.6357 148.882 43.8792 149.063 44.1247 149.234C44.3572 149.407 44.5348 149.536 44.6575 149.621L44.4748 149.852C44.2116 149.643 43.9816 149.55 43.785 149.572C43.5883 149.595 43.3681 149.76 43.1244 150.067L40.6094 153.236C40.4295 153.463 40.2824 153.686 40.1681 153.905C40.0539 154.124 40.0161 154.344 40.0549 154.565C40.0863 154.781 40.2337 154.993 40.4969 155.202C40.8039 155.446 41.144 155.573 41.5172 155.583C41.8831 155.587 42.2537 155.488 42.629 155.286C42.9911 155.084 43.3202 154.797 43.616 154.425L45.548 151.99C45.7917 151.683 45.9022 151.431 45.8796 151.234C45.8569 151.038 45.714 150.835 45.4508 150.626L45.6336 150.396C45.7447 150.496 45.9144 150.642 46.1426 150.835C46.3576 151.03 46.5857 151.223 46.827 151.414C47.0683 151.606 47.3226 151.796 47.5901 151.984C47.8518 152.18 48.0477 152.323 48.1778 152.415L47.995 152.645C47.6953 152.407 47.4398 152.294 47.2284 152.305C47.0098 152.31 46.7787 152.466 46.535 152.773L43.8111 156.206C43.55 156.535 43.417 156.822 43.4122 157.069C43.4015 157.322 43.557 157.577 43.8787 157.832L43.696 158.063C43.4794 157.855 43.2615 157.664 43.0422 157.49C42.8301 157.322 42.6204 157.173 42.4129 157.044C42.1923 156.917 41.9812 156.815 41.7798 156.739L42.8067 155.444C42.2221 155.791 41.6862 155.926 41.1991 155.849C40.6988 155.773 40.2622 155.588 39.8894 155.292Z" fill="#FAF6EB" style="mix-blend-mode:difference"/>
<path d="M19.9655 132.031L20.2035 131.883C20.3128 132.024 20.4662 132.121 20.6639 132.174C20.8615 132.228 21.1455 132.216 21.5158 132.141L27.8425 130.922L27.9678 131.124L24.0525 136.58C23.8365 136.923 23.7434 137.189 23.7734 137.379C23.7904 137.566 23.8285 137.707 23.8875 137.803L23.6375 137.957C23.5532 137.768 23.46 137.573 23.3579 137.373C23.2478 137.178 23.124 136.969 22.9863 136.747C22.8339 136.501 22.6662 136.248 22.4832 135.988C22.2953 135.72 22.1197 135.472 21.9564 135.244L22.2063 135.089C22.3292 135.288 22.4556 135.456 22.5857 135.595C22.7029 135.731 22.8452 135.775 23.0126 135.726C23.172 135.682 23.3766 135.489 23.6262 135.148L26.349 131.435L26.4171 131.492L22.03 132.333C21.7043 132.392 21.4735 132.48 21.3375 132.597C21.1886 132.711 21.1188 132.864 21.1279 133.056C21.1371 133.248 21.2222 133.492 21.3833 133.787L21.1453 133.935C21.0647 133.787 20.9964 133.659 20.9405 133.551C20.8766 133.448 20.8191 133.346 20.768 133.246C20.7041 133.143 20.6353 133.032 20.5616 132.913C20.4485 132.731 20.3438 132.57 20.2474 132.433C20.146 132.287 20.0521 132.153 19.9655 132.031ZM27.8425 130.922L29.1285 130.685C29.376 130.641 29.5943 130.621 29.7832 130.625C29.9673 130.621 30.1324 130.639 30.2787 130.681C30.4763 130.734 30.6491 130.835 30.7969 130.985C30.9526 131.13 31.0747 131.274 31.1632 131.417C31.2566 131.568 31.3149 131.724 31.338 131.885C31.3562 132.039 31.3319 132.185 31.265 132.326C31.2062 132.461 31.1013 132.575 30.9506 132.669C30.7602 132.787 30.5711 132.827 30.3832 132.79C30.2033 132.747 30.0519 132.627 29.929 132.429C29.8258 132.262 29.7849 132.09 29.8064 131.912C29.8279 131.734 29.9298 131.588 30.1123 131.475C30.2472 131.392 30.3779 131.355 30.5045 131.364C30.6311 131.373 30.7453 131.407 30.8469 131.465C30.8451 131.444 30.8416 131.43 30.8367 131.422C30.8269 131.406 30.8195 131.394 30.8146 131.386C30.6819 131.172 30.4885 131.028 30.2346 130.955C29.9885 130.877 29.6635 130.875 29.2596 130.95L27.8874 131.207L27.8425 130.922Z" fill="#FAF6EB" style="mix-blend-mode:difference"/>
<path d="M14.075 120.074C13.8672 119.513 13.8031 118.965 13.8826 118.428C13.9621 117.89 14.2157 117.393 14.6433 116.936C15.0677 116.47 15.7 116.081 16.5401 115.77C17.3801 115.458 18.113 115.34 18.7387 115.417C19.3523 115.488 19.8645 115.701 20.275 116.057C20.6856 116.412 20.9947 116.87 21.2025 117.43C21.407 117.981 21.4711 118.53 21.3948 119.076C21.3154 119.613 21.0678 120.113 20.6521 120.575C20.2244 121.033 19.5906 121.417 18.7505 121.729C17.9104 122.04 17.1792 122.162 16.5568 122.095C15.9311 122.018 15.413 121.802 15.0024 121.447C14.5886 121.083 14.2795 120.625 14.075 120.074ZM14.3375 119.976C14.5225 120.475 14.9332 120.79 15.5696 120.923C16.2028 121.046 17.1056 120.891 18.2782 120.456C19.4508 120.021 20.2369 119.55 20.6363 119.043C21.0237 118.531 21.125 118.026 20.9399 117.527C20.7549 117.028 20.3502 116.716 19.7258 116.589C19.0894 116.457 18.1849 116.608 17.0123 117.043C15.8397 117.478 15.0553 117.953 14.6591 118.468C14.2597 118.975 14.1525 119.477 14.3375 119.976Z" fill="#FAF6EB" style="mix-blend-mode:difference"/>
<path d="M9.37705 101.275L15.1651 100.412C15.5805 100.35 15.8787 100.23 16.0598 100.052C16.2302 99.8659 16.2859 99.5745 16.2267 99.1776L16.5175 99.1342C16.5324 99.4245 16.5613 99.7128 16.6039 99.9989C16.6439 100.267 16.6962 100.523 16.7611 100.768C16.8246 101.004 16.9084 101.218 17.0125 101.41L15.3786 101.654C16.013 101.795 16.4911 102.059 16.8129 102.445C17.1241 102.823 17.3127 103.234 17.3788 103.677C17.427 104 17.4228 104.288 17.3663 104.542C17.3098 104.796 17.2101 105.014 17.0674 105.195C16.9089 105.398 16.6868 105.554 16.401 105.663C16.1152 105.771 15.7554 105.858 15.3215 105.923L11.846 106.441C11.4306 106.503 11.1369 106.622 10.9651 106.799C10.784 106.977 10.7238 107.269 10.7843 107.675L10.4936 107.718C10.4772 107.419 10.4484 107.131 10.4071 106.854C10.3672 106.586 10.3155 106.334 10.252 106.098C10.1779 105.855 10.0934 105.636 9.99851 105.443L15.4404 104.631C15.7265 104.589 15.9869 104.531 16.2214 104.458C16.4559 104.385 16.636 104.264 16.7616 104.094C16.8873 103.925 16.9254 103.674 16.8758 103.341C16.8222 102.981 16.6639 102.679 16.401 102.436C16.1368 102.182 15.8038 102.006 15.4019 101.905C14.9986 101.795 14.5616 101.776 14.0908 101.846L11.2245 102.273C10.8091 102.335 10.5155 102.454 10.3436 102.631C10.1626 102.809 10.1023 103.101 10.1629 103.507L9.8721 103.551C9.85575 103.251 9.82693 102.963 9.78563 102.686C9.74572 102.418 9.69402 102.166 9.63054 101.93C9.55645 101.687 9.47195 101.468 9.37705 101.275Z" fill="#FAF6EB" style="mix-blend-mode:difference"/>
<path d="M8.81744 85.728C8.83041 85.4763 8.89297 85.2599 9.0051 85.0788C9.11772 84.8883 9.26056 84.7461 9.43362 84.6523C9.59784 84.5486 9.78248 84.502 9.98755 84.5126C10.2206 84.5246 10.4218 84.6097 10.5912 84.768C10.7611 84.9169 10.8398 85.1126 10.8273 85.3549C10.8172 85.5507 10.7477 85.72 10.6189 85.8629C10.4807 86.0053 10.2951 86.0705 10.0621 86.0585C9.88498 86.0493 9.73825 85.995 9.62188 85.8956C9.49667 85.7863 9.39991 85.6692 9.33158 85.5442C9.23501 85.6046 9.18336 85.7001 9.17664 85.8306C9.16175 86.1195 9.2366 86.3897 9.40121 86.6412C9.5565 86.8922 9.76498 87.1086 10.0266 87.2903C10.2883 87.472 10.5705 87.6174 10.8733 87.7264C11.1668 87.835 11.444 87.896 11.705 87.9095L14.6691 88.0622C15.1258 88.0858 15.4401 87.9711 15.612 87.7183C15.7751 87.4557 15.8684 87.096 15.8919 86.6393L16.1855 86.6544C16.1652 86.8683 16.1402 87.1708 16.1107 87.5618C16.0719 87.9523 16.0412 88.3666 16.0186 88.8047C16.0023 89.1216 15.9953 89.439 15.9976 89.7568C15.9911 90.0649 15.9884 90.2984 15.9895 90.4574L15.6959 90.4422C15.7156 90.0601 15.6596 89.7862 15.528 89.6205C15.3968 89.4455 15.1355 89.3479 14.744 89.3278L10.3678 89.1022C9.94839 89.0806 9.63696 89.1393 9.43353 89.2784C9.22078 89.4169 9.10384 89.6913 9.08271 90.1014L8.7891 90.0863C8.83243 89.7895 8.8613 89.5012 8.87571 89.2216C8.88964 88.9513 8.88887 88.6942 8.8734 88.4505C8.84908 88.1969 8.80959 87.9659 8.75491 87.7574L10.5026 87.8475C10.2376 87.731 9.9747 87.5726 9.714 87.3723C9.44446 87.1621 9.22345 86.9171 9.05096 86.6372C8.87847 86.3573 8.80063 86.0542 8.81744 85.728Z" fill="#FAF6EB" style="mix-blend-mode:difference"/>
<path d="M15.5597 58.1033L15.8204 58.2056C15.773 58.3775 15.7872 58.5585 15.863 58.7486C15.9389 58.9388 16.118 59.1594 16.4005 59.4106L21.1665 63.7461C21.1529 63.7809 21.1392 63.8156 21.1256 63.8504C21.112 63.8851 21.0966 63.9242 21.0796 63.9677L14.3652 64.1013C13.9718 64.1074 13.7131 64.1664 13.5891 64.2781C13.4598 64.3778 13.3764 64.4754 13.3389 64.571L13.0652 64.4636C13.142 64.2933 13.2249 64.1203 13.3139 63.9446C13.3975 63.7569 13.482 63.5544 13.5672 63.3372C13.6728 63.0678 13.7792 62.7837 13.8864 62.4849C13.997 62.1773 14.0947 61.8898 14.1795 61.6224L14.4532 61.7297C14.3681 61.9469 14.3088 62.1493 14.2754 62.3367C14.2367 62.512 14.2766 62.653 14.3952 62.7596C14.5172 62.8576 14.7732 62.9079 15.1632 62.9104L19.8294 62.8608L19.8639 62.9645L16.5497 59.9503C16.3073 59.7249 16.0984 59.5929 15.9231 59.5542C15.7425 59.5034 15.5781 59.5392 15.4298 59.6615C15.285 59.7751 15.1426 59.9849 15.0025 60.2909L14.7418 60.1887C14.8119 60.0357 14.8734 59.9044 14.9264 59.7949C14.9707 59.6819 15.0176 59.575 15.0672 59.4741C15.1115 59.3612 15.1592 59.2395 15.2103 59.1092C15.2887 58.9094 15.3542 58.7295 15.4069 58.5697C15.4629 58.4012 15.5139 58.2458 15.5597 58.1033Z" fill="#FAF6EB" style="mix-blend-mode:difference"/>
<path d="M17.2269 47.2052C17.3522 46.9974 17.5365 46.8634 17.78 46.8031C18.0234 46.7428 18.249 46.7753 18.4568 46.9006C18.6647 47.0259 18.7987 47.2102 18.859 47.4537C18.9193 47.6971 18.8868 47.9227 18.7615 48.1305C18.6362 48.3383 18.4519 48.4724 18.2084 48.5327C17.965 48.593 17.7394 48.5605 17.5316 48.4352C17.3237 48.3099 17.1897 48.1255 17.1294 47.8821C17.0691 47.6387 17.1016 47.4131 17.2269 47.2052ZM20.4682 48.3095L25.6596 51.4396C25.9953 51.642 26.2641 51.7114 26.4659 51.6478C26.6725 51.5762 26.8746 51.3766 27.0722 51.0489L27.324 51.2007C27.2341 51.3317 27.1008 51.5347 26.9241 51.8097C26.7443 52.0718 26.57 52.3427 26.4014 52.6225C26.2375 52.8942 26.0792 53.1748 25.9265 53.4642C25.7659 53.7488 25.6486 53.9614 25.5746 54.1021L25.3229 53.9503C25.5204 53.6226 25.6002 53.3546 25.5623 53.1465C25.5291 52.9303 25.3447 52.721 25.009 52.5186L21.2564 50.256C20.8967 50.0391 20.5944 49.944 20.3494 49.9707C20.0964 49.9926 19.8639 50.1794 19.6519 50.531L19.4001 50.3792C19.5783 50.1379 19.7397 49.8974 19.8843 49.6576C20.024 49.4258 20.1446 49.1988 20.2459 48.9765C20.344 48.7414 20.4182 48.5191 20.4682 48.3095Z" fill="#FAF6EB" style="mix-blend-mode:difference"/>
<path d="M27.9358 37.7504C28.1795 37.4676 28.4327 37.2668 28.6952 37.1481C28.9577 37.0294 29.1675 36.9576 29.3245 36.9327C29.7164 36.8639 29.711 36.6128 29.3083 36.1795L29.5185 35.9356C29.7043 36.1203 29.932 36.3351 30.2016 36.5798C30.4642 36.8184 30.8252 37.1358 31.2847 37.5318L31.0745 37.7757C30.7764 37.5927 30.4579 37.4476 30.119 37.3403C29.7863 37.226 29.4568 37.2008 29.1307 37.2647C28.7975 37.3225 28.4938 37.5105 28.2195 37.8286C28.0063 38.076 27.8972 38.3455 27.8923 38.6371C27.8865 38.9154 28.0179 39.1704 28.2866 39.402C28.4986 39.5848 28.7373 39.6796 29.0025 39.6864C29.2607 39.6871 29.5453 39.6428 29.8563 39.5536C30.1603 39.4583 30.4936 39.3574 30.8563 39.2511C31.2575 39.1287 31.641 39.0341 32.0066 38.9673C32.3723 38.9005 32.716 38.8949 33.0377 38.9504C33.3656 38.9989 33.6745 39.1481 33.9643 39.3979C34.2895 39.6782 34.4886 39.9977 34.5615 40.3562C34.6344 40.7148 34.6086 41.0807 34.484 41.4539C34.3656 41.8201 34.1662 42.1657 33.8859 42.4909C33.7519 42.6465 33.6097 42.7827 33.4596 42.8997C33.3226 43.0158 33.1745 43.1161 33.0154 43.2007C32.9191 43.2409 32.8127 43.2786 32.6962 43.3137C32.5857 43.3418 32.4718 43.3667 32.3543 43.3887C32.2368 43.4106 32.1855 43.4773 32.2004 43.5887C32.2082 43.694 32.2883 43.837 32.4406 44.0176L32.2304 44.2615C32.0163 44.0524 31.7498 43.8041 31.4307 43.5167C31.1116 43.2294 30.6834 42.8541 30.1461 42.391L30.3563 42.1471C30.7949 42.4389 31.2022 42.6667 31.5783 42.8308C31.9545 42.9948 32.3127 43.051 32.653 42.9993C32.9862 42.9415 33.3052 42.7358 33.6098 42.3823C33.7317 42.241 33.8218 42.0721 33.88 41.8759C33.9444 41.6726 33.945 41.4575 33.8818 41.2305C33.8187 41.0036 33.6634 40.7835 33.4159 40.5702C33.1049 40.3021 32.7529 40.1958 32.3599 40.2514C31.967 40.3071 31.5116 40.4136 30.9939 40.5711C30.6119 40.6855 30.2421 40.7857 29.8845 40.8718C29.533 40.9508 29.1938 40.9726 28.8669 40.9373C28.5461 40.8949 28.2408 40.7488 27.951 40.4989C27.6328 40.2247 27.4357 39.9316 27.3597 39.6196C27.2826 39.2944 27.3017 38.972 27.417 38.6525C27.5252 38.3268 27.6981 38.0261 27.9358 37.7504Z" fill="#FAF6EB" style="mix-blend-mode:difference"/>
<path d="M35.8092 25.2012C35.9963 25.0466 36.2146 24.9812 36.4643 25.0049C36.7139 25.0287 36.9161 25.1341 37.0706 25.3211C37.2252 25.5082 37.2906 25.7266 37.2669 25.9762C37.2432 26.2259 37.1377 26.428 36.9507 26.5826C36.7636 26.7372 36.5453 26.8026 36.2956 26.7788C36.0459 26.7551 35.8438 26.6497 35.6892 26.4626C35.5347 26.2756 35.4692 26.0572 35.493 25.8075C35.5167 25.5579 35.6221 25.3558 35.8092 25.2012ZM38.5018 27.3168L42.3632 31.9898C42.6129 32.292 42.8435 32.4465 43.055 32.4533C43.2737 32.4542 43.5305 32.3328 43.8255 32.0891L44.0128 32.3157C43.8845 32.4096 43.6915 32.5569 43.4338 32.7578C43.1773 32.9456 42.9231 33.1435 42.6713 33.3516C42.4267 33.5537 42.1844 33.766 41.9445 33.9885C41.6986 34.2038 41.5175 34.3656 41.4011 34.4738L41.2138 34.2472C41.5088 34.0034 41.6729 33.7771 41.706 33.5681C41.7463 33.3531 41.6416 33.0946 41.3919 32.7924L38.6006 29.4145C38.3331 29.0907 38.0793 28.9008 37.8394 28.8449C37.5935 28.7817 37.3122 28.8809 36.9956 29.1425L36.8084 28.9159C37.0564 28.7472 37.2884 28.5737 37.5042 28.3953C37.7129 28.2229 37.9018 28.0486 38.071 27.8725C38.2415 27.6832 38.3851 27.4979 38.5018 27.3168Z" fill="#FAF6EB" style="mix-blend-mode:difference"/>
<path d="M47.6408 18.1951L48.8371 20.2039L50.6173 19.1437L50.7606 19.3843L48.9804 20.4444L51.7526 25.0995C51.9771 25.4764 52.2028 25.7004 52.4299 25.7716C52.6569 25.8428 52.8907 25.8067 53.1313 25.6635C53.3719 25.5202 53.5231 25.2998 53.5849 25.0023C53.6419 24.6967 53.5961 24.2732 53.4474 23.7317L53.7238 23.6486C53.9206 24.1614 53.9942 24.6499 53.9447 25.1139C53.9031 25.5732 53.6378 25.9484 53.1486 26.2397C52.876 26.4021 52.63 26.4998 52.4106 26.5326C52.1959 26.5736 51.9823 26.5704 51.7695 26.5233C51.4833 26.444 51.2276 26.2975 51.0027 26.0838C50.7857 25.8654 50.5506 25.5437 50.2975 25.1187L47.8978 21.0891L46.7431 21.7768L46.5998 21.5363L47.7545 20.8486L46.6585 19.0082C46.8542 18.8808 47.0371 18.7501 47.2072 18.6163C47.3774 18.4824 47.5219 18.342 47.6408 18.1951Z" fill="#FAF6EB" style="mix-blend-mode:difference"/>
<path d="M74.9595 13.181L75.1448 13.9716L70.2241 15.1247L70.0388 14.3342L74.9595 13.181Z" fill="#FAF6EB" style="mix-blend-mode:difference"/>
<path d="M97.3853 8.56119L96.4636 17.1076C96.4206 17.5067 96.508 17.7836 96.726 17.9386C96.9523 18.1038 97.2742 18.2089 97.6918 18.2539L97.6603 18.5462C97.4571 18.5149 97.1756 18.4705 96.8157 18.4129C96.4548 18.3646 96.0702 18.3184 95.6619 18.2744C95.3742 18.2434 95.0861 18.217 94.7974 18.1953C94.517 18.1838 94.3021 18.1747 94.1526 18.168L94.1841 17.8757C94.5182 17.9117 94.7613 17.8769 94.9135 17.7713C95.0657 17.6656 95.1598 17.4458 95.1959 17.1117L95.9524 10.0964C95.9974 9.67883 95.9562 9.3646 95.8288 9.15372C95.7023 8.93356 95.4349 8.80147 95.0266 8.75743L95.0581 8.46513C95.3521 8.52499 95.6383 8.56993 95.9166 8.59995C96.1857 8.62897 96.4424 8.64257 96.6867 8.64075C96.9413 8.63065 97.1741 8.60413 97.3853 8.56119ZM99.6169 8.75961C100.109 8.81264 100.535 8.99473 100.896 9.30587C101.257 9.60773 101.522 10.0258 101.69 10.5602C101.867 11.0956 101.915 11.7391 101.834 12.4908C101.78 12.9919 101.666 13.4818 101.492 13.9606C101.319 14.4302 101.082 14.8504 100.779 15.2214C100.486 15.5842 100.123 15.8641 99.6884 16.0614C99.2643 16.2503 98.7693 16.3143 98.2032 16.2532C97.7671 16.2062 97.3976 16.0631 97.0949 15.8239C96.8014 15.5858 96.6145 15.3168 96.5342 15.0172L96.6944 14.8373C96.7963 15.1111 96.9583 15.3492 97.1806 15.5515C97.4121 15.7549 97.7135 15.8766 98.0847 15.9166C98.6043 15.9726 99.0255 15.8538 99.3482 15.56C99.6709 15.2662 99.9169 14.8563 100.086 14.3301C100.266 13.7956 100.391 13.1989 100.462 12.5401C100.542 11.7977 100.548 11.1834 100.478 10.6971C100.408 10.2109 100.266 9.83871 100.049 9.58071C99.8331 9.3227 99.5486 9.17468 99.196 9.13666C98.7413 9.08762 98.3078 9.23332 97.8956 9.57375C97.4844 9.90491 97.1868 10.4454 97.0026 11.1954L96.8566 10.9825C97.0437 10.2047 97.3882 9.62229 97.8899 9.23519C98.4009 8.84908 98.9766 8.69056 99.6169 8.75961Z" fill="#FAF6EB" style="mix-blend-mode:difference"/>
<path d="M115.557 8.30559L112.776 17.5712C112.663 17.9467 112.663 18.2243 112.774 18.404C112.895 18.5864 113.139 18.7326 113.505 18.8426L113.421 19.1242C113.271 19.0696 113.042 18.9909 112.731 18.8881C112.433 18.779 112.127 18.6775 111.814 18.5835C111.51 18.4923 111.199 18.4087 110.881 18.3327C110.565 18.2477 110.33 18.1869 110.176 18.1502L110.26 17.8686C110.627 17.9786 110.906 17.9894 111.098 17.9009C111.299 17.8151 111.456 17.5845 111.569 17.209L113.867 9.55247C113.988 9.15019 114.005 8.83373 113.918 8.60307C113.834 8.36348 113.595 8.18465 113.202 8.0666L113.287 7.78501C113.565 7.89769 113.838 7.99427 114.106 8.07476C114.365 8.15257 114.615 8.21294 114.855 8.25589C115.108 8.29257 115.341 8.30914 115.557 8.30559Z" fill="#FAF6EB" style="mix-blend-mode:difference"/>
<path d="M122.894 22.8992C122.551 22.7292 122.285 22.5192 122.096 22.2694C121.912 22.0112 121.811 21.7319 121.793 21.4314C121.784 21.1351 121.856 20.8322 122.009 20.5229C122.192 20.155 122.425 19.8954 122.708 19.7442C123 19.5972 123.315 19.5189 123.653 19.5095C123.991 19.5 124.329 19.5219 124.667 19.5751C125.018 19.624 125.348 19.673 125.657 19.7221C125.97 19.7628 126.239 19.7661 126.465 19.732C126.698 19.702 126.863 19.5909 126.958 19.3986L127.344 18.6209C127.518 18.2698 127.596 17.9752 127.579 17.7374C127.57 17.5037 127.492 17.314 127.345 17.1684C127.203 17.0144 127.023 16.8835 126.806 16.7757C126.597 16.672 126.356 16.5893 126.085 16.5276C125.822 16.47 125.573 16.498 125.34 16.6114C125.482 16.7237 125.579 16.8757 125.63 17.0675C125.68 17.2594 125.654 17.4598 125.55 17.6688C125.446 17.8779 125.297 18.0119 125.101 18.071C124.909 18.1217 124.708 18.0952 124.499 17.9916C124.257 17.8713 124.114 17.7069 124.072 17.4983C124.042 17.2856 124.075 17.083 124.17 16.8907C124.278 16.6733 124.419 16.5247 124.594 16.4448C124.77 16.3649 124.97 16.3079 125.195 16.2738C125.454 16.2354 125.756 16.2448 126.103 16.3021C126.462 16.3552 126.834 16.4772 127.219 16.6679C127.561 16.8379 127.833 17.0249 128.034 17.2288C128.239 17.4243 128.384 17.6367 128.468 17.866C128.586 18.1745 128.606 18.4916 128.528 18.8175C128.454 19.1349 128.317 19.4943 128.118 19.8957L126.389 23.3824C126.285 23.5915 126.24 23.7565 126.253 23.8775C126.274 24.0026 126.352 24.0984 126.485 24.1647C126.577 24.2104 126.675 24.233 126.78 24.2327C126.884 24.2323 127.018 24.2152 127.18 24.1813L127.213 24.4629C126.971 24.5096 126.747 24.5396 126.543 24.5527C126.343 24.5576 126.109 24.4936 125.841 24.3609C125.599 24.2407 125.419 24.0993 125.301 23.9369C125.184 23.7745 125.123 23.5932 125.118 23.3928C125.126 23.1883 125.192 22.9606 125.316 22.7097C124.904 22.974 124.493 23.1194 124.084 23.1457C123.683 23.1763 123.287 23.0941 122.894 22.8992ZM123.594 22.6214C123.87 22.7583 124.164 22.8053 124.477 22.7625C124.799 22.7239 125.134 22.5935 125.484 22.3711L126.703 19.9128C126.532 20.0052 126.326 20.0539 126.084 20.0588C125.846 20.0554 125.589 20.0479 125.314 20.0363C125.042 20.0163 124.769 20.0214 124.493 20.0515C124.231 20.0774 123.98 20.1617 123.743 20.3044C123.506 20.447 123.304 20.6856 123.138 21.0201C122.972 21.3545 122.927 21.6656 123.003 21.9534C123.088 22.2453 123.285 22.468 123.594 22.6214Z" fill="#FAF6EB" style="mix-blend-mode:difference"/>
<path d="M141.541 25.5815C141.821 25.7989 142.025 26.016 142.152 26.2328C142.286 26.4553 142.365 26.6816 142.387 26.9116C142.413 27.1678 142.369 27.4293 142.257 27.6963C142.144 27.9633 141.942 28.2848 141.65 28.6609L139.358 31.6141C139.118 31.9238 139.018 32.1826 139.057 32.3905C139.104 32.6041 139.279 32.8282 139.581 33.0628L139.401 33.2951C139.281 33.1904 139.095 33.0343 138.843 32.8266C138.596 32.6116 138.351 32.4097 138.108 32.2209C137.864 32.0321 137.619 31.8535 137.372 31.6852C137.137 31.5152 136.958 31.3881 136.835 31.3039L137.015 31.0716C137.28 31.2776 137.511 31.3682 137.708 31.3434C137.904 31.3186 138.122 31.1514 138.363 30.8417L140.843 27.6451C141.021 27.4166 141.165 27.1921 141.277 26.9718C141.389 26.7514 141.424 26.5308 141.383 26.3098C141.349 26.0946 141.2 25.884 140.934 25.678C140.625 25.4377 140.283 25.3144 139.91 25.3083C139.544 25.3079 139.174 25.4111 138.801 25.6178C138.441 25.8228 138.116 26.1134 137.824 26.4895L135.918 28.945C135.678 29.2547 135.57 29.5077 135.595 29.7042C135.62 29.9006 135.765 30.1018 136.03 30.3078L135.85 30.5401C135.738 30.4411 135.567 30.2964 135.336 30.106C135.119 29.9139 134.889 29.7234 134.646 29.5346C134.402 29.3458 134.146 29.1586 133.876 28.9731C133.613 28.7802 133.415 28.6388 133.284 28.5489L133.464 28.3166C133.767 28.5512 134.023 28.6618 134.235 28.6485C134.453 28.6409 134.683 28.4822 134.923 28.1725L137.609 24.7105C137.867 24.3787 137.997 24.0896 137.999 23.8432C138.007 23.5894 137.848 23.3367 137.524 23.0849L137.704 22.8526C137.923 23.0578 138.143 23.2463 138.364 23.4179C138.578 23.5839 138.789 23.7301 138.998 23.8568C139.22 23.9818 139.432 24.0814 139.635 24.1557L138.622 25.4608C139.203 25.1082 139.737 24.9676 140.225 25.0391C140.726 25.1089 141.165 25.2897 141.541 25.5815Z" fill="#FAF6EB" style="mix-blend-mode:difference"/>
<path d="M161.718 48.6285L161.482 48.7786C161.371 48.6389 161.217 48.5435 161.018 48.4924C160.82 48.4414 160.536 48.4558 160.167 48.5355L153.854 49.8233L153.726 49.6224L157.582 44.1238C157.794 43.779 157.884 43.5117 157.852 43.322C157.833 43.1351 157.794 42.9944 157.734 42.8999L157.982 42.7423C158.068 42.9307 158.164 43.1244 158.268 43.3235C158.38 43.5176 158.506 43.725 158.646 43.9456C158.801 44.1899 158.972 44.441 159.157 44.6989C159.348 44.9647 159.527 45.2108 159.692 45.4372L159.444 45.5948C159.319 45.3978 159.191 45.2305 159.059 45.0929C158.941 44.9582 158.798 44.9161 158.631 44.9668C158.472 45.0124 158.27 45.2072 158.024 45.5513L155.342 49.2935L155.273 49.2376L159.65 48.3492C159.976 48.2865 160.205 48.1959 160.34 48.0772C160.488 47.9614 160.556 47.8076 160.545 47.6157C160.533 47.4239 160.446 47.1811 160.281 46.8874L160.518 46.7374C160.6 46.8842 160.67 47.0113 160.727 47.1188C160.792 47.2212 160.85 47.3222 160.902 47.4218C160.967 47.5242 161.037 47.6345 161.113 47.7527C161.228 47.934 161.334 48.093 161.432 48.2298C161.535 48.3746 161.63 48.5075 161.718 48.6285ZM153.854 49.8233L152.57 50.0742C152.323 50.1204 152.105 50.1427 151.916 50.1411C151.732 50.1473 151.567 50.1307 151.42 50.0911C151.222 50.0401 151.048 49.9404 150.899 49.7921C150.742 49.6487 150.618 49.5061 150.528 49.3643C150.433 49.2146 150.373 49.0592 150.348 48.8981C150.328 48.7449 150.351 48.5978 150.416 48.4568C150.474 48.3209 150.577 48.2054 150.727 48.1104C150.916 47.9903 151.105 47.9479 151.293 47.9832C151.473 48.0235 151.626 48.1422 151.751 48.3392C151.856 48.5046 151.899 48.6765 151.879 48.8547C151.86 49.0329 151.759 49.1796 151.578 49.2946C151.444 49.3796 151.314 49.4181 151.187 49.4101C151.06 49.4021 150.946 49.3698 150.844 49.3131C150.846 49.3339 150.849 49.3482 150.854 49.3561C150.864 49.3718 150.872 49.3836 150.877 49.3915C151.012 49.6043 151.207 49.7459 151.461 49.8163C151.708 49.8918 152.033 49.89 152.436 49.811L153.806 49.5387L153.854 49.8233Z" fill="#FAF6EB" style="mix-blend-mode:difference"/>
<path d="M167.739 60.5156C167.953 61.0733 168.023 61.6212 167.95 62.1592C167.876 62.6972 167.628 63.1972 167.205 63.6591C166.786 64.1297 166.158 64.5254 165.321 64.8461C164.485 65.1669 163.753 65.2924 163.127 65.2227C162.512 65.1584 161.998 64.9507 161.584 64.5998C161.169 64.2489 160.855 63.7946 160.641 63.2369C160.431 62.6878 160.361 62.1399 160.431 61.5932C160.505 61.0552 160.747 60.5526 161.157 60.0853C161.58 59.6234 162.21 59.232 163.046 58.9113C163.883 58.5906 164.613 58.4607 165.236 58.5217C165.862 58.5914 166.383 58.8017 166.797 59.1526C167.215 59.5122 167.529 59.9665 167.739 60.5156ZM167.478 60.6158C167.288 60.119 166.873 59.808 166.236 59.6827C165.601 59.5661 164.7 59.7316 163.532 60.1793C162.364 60.627 161.584 61.1063 161.19 61.6172C160.808 62.1334 160.712 62.6399 160.903 63.1366C161.093 63.6334 161.501 63.9417 162.127 64.0617C162.765 64.187 163.668 64.0258 164.835 63.5781C166.003 63.1304 166.782 62.6468 167.173 62.1272C167.567 61.6163 167.668 61.1125 167.478 60.6158Z" fill="#FAF6EB" style="mix-blend-mode:difference"/>
<path d="M172.641 79.2607L166.863 80.1867C166.448 80.2532 166.151 80.3764 165.972 80.5563C165.803 80.744 165.751 81.036 165.815 81.4323L165.524 81.4788C165.506 81.1887 165.474 80.9008 165.428 80.6151C165.386 80.3478 165.33 80.092 165.263 79.8476C165.197 79.6124 165.111 79.3994 165.004 79.2085L166.636 78.947C166 78.8126 165.519 78.5542 165.193 78.1716C164.877 77.7968 164.684 77.3882 164.613 76.9458C164.562 76.6233 164.563 76.3348 164.617 76.0804C164.67 75.826 164.768 75.6072 164.908 75.424C165.065 75.2193 165.285 75.0611 165.57 74.9494C165.854 74.8376 166.213 74.747 166.646 74.6776L170.116 74.1215C170.531 74.055 170.823 73.9326 170.993 73.7541C171.172 73.5741 171.229 73.2814 171.164 72.8759L171.454 72.8294C171.474 73.1287 171.506 73.4166 171.55 73.6931C171.593 73.9604 171.647 74.2116 171.713 74.4468C171.79 74.6897 171.877 74.9074 171.974 75.0998L166.541 75.9704C166.256 76.0162 165.996 76.0767 165.762 76.152C165.529 76.2273 165.35 76.3504 165.226 76.5215C165.102 76.6926 165.067 76.944 165.12 77.2758C165.178 77.6352 165.339 77.9354 165.605 78.1765C165.872 78.4267 166.207 78.5999 166.61 78.696C167.014 78.8013 167.451 78.8163 167.921 78.741L170.783 78.2824C171.197 78.2159 171.49 78.0935 171.66 77.915C171.839 77.735 171.896 77.4423 171.831 77.0368L172.121 76.9903C172.141 77.2896 172.173 77.5775 172.217 77.854C172.26 78.1213 172.314 78.3725 172.38 78.6077C172.457 78.8506 172.544 79.0683 172.641 79.2607Z" fill="#FAF6EB" style="mix-blend-mode:difference"/>
<path d="M173.37 94.8019C173.36 95.0537 173.3 95.2708 173.19 95.4531C173.079 95.6448 172.938 95.7885 172.766 95.8843C172.603 95.9898 172.419 96.0383 172.213 96.03C171.98 96.0205 171.778 95.9376 171.607 95.7812C171.436 95.6341 171.355 95.4393 171.365 95.1969C171.372 95.001 171.44 94.831 171.567 94.6867C171.704 94.5428 171.889 94.4756 172.122 94.485C172.299 94.4922 172.447 94.5449 172.564 94.6431C172.69 94.751 172.788 94.867 172.858 94.9913C172.954 94.9298 173.005 94.8338 173.01 94.7032C173.022 94.4141 172.944 94.1448 172.777 93.8951C172.619 93.6458 172.408 93.4317 172.144 93.2529C171.88 93.0741 171.597 92.9318 171.293 92.826C170.998 92.7206 170.72 92.6626 170.459 92.652L167.494 92.5316C167.037 92.513 166.724 92.6311 166.554 92.8858C166.394 93.1502 166.305 93.5108 166.286 93.9678L165.992 93.9559C166.011 93.7417 166.032 93.439 166.057 93.0477C166.092 92.6568 166.118 92.2422 166.136 91.8039C166.149 91.4868 166.152 91.1694 166.147 90.8515C166.15 90.5434 166.15 90.3099 166.147 90.151L166.441 90.1629C166.425 90.5453 166.484 90.8186 166.618 90.9828C166.751 91.1563 167.013 91.251 167.405 91.2669L171.783 91.4448C172.203 91.4618 172.514 91.3997 172.715 91.2584C172.927 91.1176 173.041 90.842 173.057 90.4316L173.351 90.4436C173.311 90.7408 173.285 91.0294 173.274 91.3091C173.263 91.5796 173.266 91.8366 173.285 92.0802C173.312 92.3335 173.354 92.5641 173.411 92.7719L171.662 92.7009C171.928 92.8144 172.193 92.97 172.456 93.1675C172.728 93.3747 172.951 93.6173 173.127 93.8953C173.302 94.1733 173.383 94.4755 173.37 94.8019Z" fill="#FAF6EB" style="mix-blend-mode:difference"/>
<path d="M166.929 122.501L166.667 122.401C166.713 122.229 166.697 122.048 166.619 121.859C166.541 121.669 166.359 121.451 166.074 121.203L161.261 116.919C161.274 116.884 161.288 116.85 161.301 116.815C161.314 116.78 161.329 116.74 161.346 116.697L168.058 116.49C168.451 116.48 168.709 116.418 168.832 116.305C168.961 116.204 169.043 116.105 169.079 116.009L169.354 116.114C169.279 116.285 169.198 116.459 169.111 116.635C169.03 116.824 168.947 117.027 168.864 117.245C168.762 117.516 168.658 117.801 168.555 118.101C168.447 118.41 168.353 118.698 168.271 118.967L167.996 118.862C168.079 118.644 168.136 118.441 168.167 118.254C168.204 118.078 168.163 117.937 168.043 117.832C167.92 117.735 167.663 117.688 167.273 117.689L162.608 117.79L162.572 117.687L165.919 120.665C166.164 120.887 166.374 121.017 166.55 121.054C166.731 121.103 166.895 121.065 167.042 120.941C167.186 120.826 167.326 120.615 167.462 120.307L167.724 120.406C167.656 120.56 167.596 120.692 167.544 120.802C167.501 120.916 167.455 121.023 167.407 121.125C167.364 121.238 167.317 121.36 167.268 121.491C167.191 121.692 167.128 121.872 167.077 122.033C167.023 122.202 166.973 122.358 166.929 122.501Z" fill="#FAF6EB" style="mix-blend-mode:difference"/>
<path d="M165.38 133.416C165.257 133.626 165.074 133.762 164.831 133.825C164.589 133.888 164.363 133.857 164.153 133.734C163.944 133.611 163.808 133.429 163.745 133.186C163.682 132.943 163.712 132.717 163.835 132.508C163.958 132.299 164.141 132.163 164.384 132.1C164.627 132.037 164.853 132.067 165.062 132.19C165.271 132.313 165.407 132.496 165.47 132.739C165.533 132.981 165.503 133.207 165.38 133.416ZM162.127 132.348L156.902 129.274C156.564 129.076 156.294 129.009 156.093 129.075C155.887 129.149 155.687 129.35 155.493 129.68L155.24 129.531C155.328 129.399 155.459 129.195 155.633 128.918C155.81 128.654 155.981 128.381 156.147 128.1C156.308 127.826 156.463 127.544 156.613 127.253C156.77 126.966 156.885 126.752 156.958 126.611L157.211 126.76C157.017 127.09 156.94 127.359 156.98 127.566C157.016 127.782 157.203 127.989 157.54 128.188L161.318 130.41C161.68 130.623 161.983 130.714 162.228 130.685C162.48 130.661 162.711 130.471 162.919 130.117L163.172 130.266C162.997 130.51 162.838 130.752 162.696 130.993C162.559 131.226 162.441 131.455 162.342 131.678C162.246 131.914 162.175 132.137 162.127 132.348Z" fill="#FAF6EB" style="mix-blend-mode:difference"/>
<path d="M154.775 142.983C154.534 143.269 154.283 143.472 154.022 143.594C153.761 143.715 153.552 143.789 153.395 143.816C153.004 143.889 153.012 144.14 153.419 144.569L153.212 144.815C153.024 144.632 152.794 144.42 152.522 144.178C152.257 143.943 151.892 143.629 151.428 143.238L151.636 142.992C151.936 143.172 152.256 143.313 152.596 143.417C152.93 143.528 153.26 143.549 153.585 143.482C153.918 143.42 154.219 143.229 154.49 142.908C154.701 142.658 154.807 142.388 154.808 142.096C154.811 141.818 154.677 141.564 154.406 141.335C154.192 141.155 153.952 141.063 153.687 141.059C153.429 141.061 153.145 141.108 152.835 141.201C152.532 141.3 152.199 141.404 151.838 141.514C151.438 141.641 151.056 141.74 150.691 141.811C150.326 141.881 149.982 141.891 149.66 141.839C149.332 141.794 149.021 141.648 148.729 141.401C148.4 141.125 148.198 140.807 148.121 140.45C148.044 140.092 148.066 139.726 148.186 139.351C148.301 138.984 148.496 138.636 148.773 138.308C148.906 138.151 149.046 138.013 149.195 137.894C149.331 137.777 149.478 137.675 149.636 137.588C149.732 137.547 149.838 137.508 149.954 137.472C150.064 137.443 150.178 137.417 150.295 137.393C150.412 137.37 150.463 137.303 150.447 137.192C150.438 137.086 150.356 136.944 150.202 136.765L150.409 136.519C150.626 136.726 150.895 136.971 151.217 137.255C151.539 137.539 151.972 137.91 152.514 138.367L152.306 138.613C151.865 138.326 151.455 138.103 151.077 137.943C150.699 137.783 150.34 137.731 150.001 137.786C149.668 137.847 149.351 138.056 149.05 138.413C148.93 138.556 148.842 138.726 148.786 138.923C148.724 139.127 148.725 139.342 148.791 139.568C148.857 139.794 149.014 140.013 149.264 140.223C149.578 140.488 149.931 140.59 150.324 140.53C150.716 140.471 151.17 140.359 151.686 140.196C152.067 140.077 152.435 139.973 152.792 139.883C153.143 139.8 153.482 139.775 153.809 139.807C154.13 139.845 154.437 139.988 154.73 140.235C155.051 140.506 155.251 140.797 155.33 141.108C155.411 141.432 155.395 141.755 155.284 142.075C155.179 142.402 155.009 142.705 154.775 142.983Z" fill="#FAF6EB" style="mix-blend-mode:difference"/>
<path d="M147.039 155.62C146.853 155.777 146.636 155.845 146.386 155.824C146.136 155.803 145.932 155.7 145.776 155.514C145.619 155.329 145.551 155.111 145.572 154.861C145.594 154.611 145.697 154.408 145.882 154.252C146.067 154.095 146.285 154.027 146.535 154.048C146.785 154.069 146.988 154.172 147.145 154.358C147.301 154.543 147.369 154.761 147.348 155.011C147.327 155.261 147.224 155.464 147.039 155.62ZM144.323 153.534L140.411 148.904C140.158 148.604 139.926 148.452 139.714 148.448C139.495 148.449 139.24 148.573 138.948 148.82L138.758 148.596C138.885 148.501 139.076 148.351 139.332 148.147C139.587 147.957 139.838 147.756 140.088 147.545C140.33 147.341 140.57 147.126 140.808 146.901C141.051 146.683 141.231 146.519 141.346 146.409L141.536 146.634C141.243 146.881 141.082 147.109 141.051 147.318C141.013 147.534 141.12 147.791 141.373 148.091L144.201 151.438C144.472 151.759 144.728 151.946 144.969 151.999C145.215 152.06 145.496 151.957 145.809 151.692L145.999 151.917C145.753 152.088 145.523 152.264 145.309 152.445C145.102 152.62 144.915 152.796 144.748 152.974C144.579 153.165 144.438 153.352 144.323 153.534Z" fill="#FAF6EB" style="mix-blend-mode:difference"/>
<path d="M135.284 162.753L134.066 160.757L132.297 161.837L132.151 161.598L133.92 160.518L131.097 155.894C130.868 155.519 130.64 155.298 130.412 155.229C130.185 155.161 129.951 155.199 129.712 155.345C129.473 155.491 129.324 155.713 129.266 156.011C129.212 156.317 129.263 156.74 129.417 157.28L129.142 157.366C128.939 156.856 128.86 156.368 128.905 155.903C128.941 155.444 129.203 155.066 129.689 154.769C129.96 154.604 130.204 154.503 130.423 154.468C130.638 154.425 130.851 154.426 131.065 154.47C131.352 154.547 131.609 154.69 131.836 154.901C132.056 155.117 132.294 155.437 132.552 155.859L134.995 159.862L136.142 159.162L136.288 159.401L135.141 160.101L136.257 161.929C136.063 162.059 135.881 162.191 135.713 162.327C135.544 162.463 135.401 162.605 135.284 162.753Z" fill="#FAF6EB" style="mix-blend-mode:difference"/>
<path d="M108.025 168.07L107.831 167.282L112.738 166.075L112.932 166.863L108.025 168.07Z" fill="#FAF6EB" style="mix-blend-mode:difference"/>
</svg>
