<svg width="94" height="93" viewBox="0 0 94 93" fill="none" xmlns="http://www.w3.org/2000/svg">
<circle cx="47" cy="46.3091" r="46.1538" fill="black"/>
<path d="M61.7558 41.7794C61.7558 41.7793 61.7558 41.7792 61.7558 41.7792L62.101 41.7177C62.1011 41.7177 62.1011 41.7178 62.1011 41.7178M61.7558 41.7794L62.1011 41.7178M61.7558 41.7794C61.7565 41.7834 61.7573 41.7875 61.758 41.7916M62.1011 41.7178C62.1017 41.7218 62.1024 41.7259 62.1032 41.7299L62.1011 41.7178ZM65.7 47.8788L65.4771 48.0902L64.8742 48.1039L65.2636 47.7903C65.2636 47.7903 65.2635 47.7903 65.2635 47.7903C65.1484 47.6473 65.023 47.513 64.8885 47.3875C65.1664 47.5393 65.4372 47.7041 65.7 47.8788Z" fill="white" stroke="white"/>
<path d="M28.7364 47.7903C28.8516 47.6474 28.977 47.513 29.1115 47.3875M28.7364 47.7903L29.1258 48.1039M28.7364 47.7903C28.7364 47.7903 28.7365 47.7903 28.7365 47.7903L29.1258 48.1039M28.7364 47.7903C28.6605 47.8846 28.5892 47.9849 28.5229 48.0902M29.1115 47.3875L29.1258 48.1039M29.1115 47.3875C28.8336 47.5393 28.5628 47.7041 28.3 47.8788M29.1258 48.1039C28.3702 49.0419 28.1152 50.7689 28.9391 51.8377L28.8127 51.9344C28.0508 50.9171 28.163 49.3829 28.7796 48.3335L28.5229 48.0902M28.5229 48.0902C28.5088 48.1127 28.4949 48.1354 28.4812 48.1582C28.4684 48.1798 28.4557 48.2016 28.4432 48.2235L28.3484 48.0802L28.1629 47.9712C28.1889 47.9534 28.215 47.9357 28.2412 47.9181C28.2607 47.905 28.2803 47.8919 28.3 47.8788M28.5229 48.0902L28.3 47.8788M28.3 47.8788L28.0726 47.6632C27.264 48.1981 26.5356 48.8193 25.9099 49.43C25.8675 49.4713 25.8257 49.5126 25.7843 49.5538M28.5425 52.1422C28.0356 51.4842 27.8795 50.6517 27.9418 49.8814C27.9713 49.5162 28.0508 49.1521 28.1741 48.8107C28.1033 48.8625 28.0333 48.9148 27.964 48.9677C27.6396 50.0423 27.7085 51.3175 28.4333 52.2617L28.5425 52.1422Z" fill="white" stroke="white"/>
</svg>
