<svg width="20" height="20" viewBox="0 0 20 20" fill="none" xmlns="http://www.w3.org/2000/svg">
<path d="M9.99725 6.66525C8.16101 6.66525 6.6625 8.16376 6.6625 10C6.6625 11.8362 8.16101 13.3348 9.99725 13.3348C11.8335 13.3348 13.332 11.8362 13.332 10C13.332 8.16376 11.8335 6.66525 9.99725 6.66525ZM19.999 10C19.999 8.61907 20.0115 7.25064 19.934 5.87221C19.8564 4.27113 19.4912 2.85017 18.3204 1.67938C17.1471 0.506085 15.7286 0.14334 14.1275 0.065788C12.7466 -0.0117644 11.3782 0.000744113 9.99975 0.000744113C8.61882 0.000744113 7.2504 -0.0117644 5.87197 0.065788C4.27089 0.14334 2.84992 0.508587 1.67913 1.67938C0.505841 2.85267 0.143096 4.27113 0.0655439 5.87221C-0.0120085 7.25314 0.000499973 8.62157 0.000499973 10C0.000499973 11.3784 -0.0120085 12.7494 0.0655439 14.1278C0.143096 15.7289 0.508343 17.1498 1.67913 18.3206C2.85243 19.4939 4.27089 19.8567 5.87197 19.9342C7.2529 20.0118 8.62132 19.9993 9.99975 19.9993C11.3807 19.9993 12.7491 20.0118 14.1275 19.9342C15.7286 19.8567 17.1496 19.4914 18.3204 18.3206C19.4937 17.1473 19.8564 15.7289 19.934 14.1278C20.014 12.7494 19.999 11.3809 19.999 10ZM9.99725 15.131C7.15783 15.131 4.86629 12.8394 4.86629 10C4.86629 7.16058 7.15783 4.86903 9.99725 4.86903C12.8367 4.86903 15.1282 7.16058 15.1282 10C15.1282 12.8394 12.8367 15.131 9.99725 15.131ZM15.3384 5.8572C14.6754 5.8572 14.1401 5.32184 14.1401 4.65889C14.1401 3.99594 14.6754 3.46058 15.3384 3.46058C16.0013 3.46058 16.5367 3.99594 16.5367 4.65889C16.5369 4.81631 16.506 4.97222 16.4459 5.1177C16.3857 5.26317 16.2974 5.39535 16.1861 5.50666C16.0748 5.61798 15.9426 5.70624 15.7972 5.76639C15.6517 5.82654 15.4958 5.8574 15.3384 5.8572Z" fill="white"/>
</svg>
