<svg width="32" height="33" viewBox="0 0 32 33" fill="none" xmlns="http://www.w3.org/2000/svg">
<path d="M22.1928 10.692C22.1928 10.5348 22.0643 10.4062 21.9071 10.4062L19.55 10.417L16 14.6491L12.4536 10.4205L10.0928 10.4098C9.9357 10.4098 9.80713 10.5348 9.80713 10.6955C9.80713 10.7634 9.83213 10.8277 9.87499 10.8813L14.5214 16.417L9.87499 21.9491C9.83183 22.0015 9.80788 22.067 9.80713 22.1348C9.80713 22.292 9.9357 22.4205 10.0928 22.4205L12.4536 22.4098L16 18.1777L19.5464 22.4062L21.9036 22.417C22.0607 22.417 22.1893 22.292 22.1893 22.1312C22.1893 22.0634 22.1643 21.9991 22.1214 21.9455L17.4821 16.4134L22.1286 10.8777C22.1714 10.8277 22.1928 10.7598 22.1928 10.692Z" fill="white"/>
<path d="M16 0.341797C7.16429 0.341797 0 7.50608 0 16.3418C0 25.1775 7.16429 32.3418 16 32.3418C24.8357 32.3418 32 25.1775 32 16.3418C32 7.50608 24.8357 0.341797 16 0.341797ZM16 29.6275C8.66429 29.6275 2.71429 23.6775 2.71429 16.3418C2.71429 9.00608 8.66429 3.05608 16 3.05608C23.3357 3.05608 29.2857 9.00608 29.2857 16.3418C29.2857 23.6775 23.3357 29.6275 16 29.6275Z" fill="white"/>
</svg>
