<svg width="21" height="21" viewBox="0 0 21 21" fill="none" xmlns="http://www.w3.org/2000/svg">
<path d="M12.0698 10.2259L9.73023 9.13428C9.52607 9.03949 9.35836 9.14574 9.35836 9.37178V11.428C9.35836 11.6541 9.52607 11.7603 9.73023 11.6655L12.0688 10.5739C12.274 10.478 12.274 10.3218 12.0698 10.2259ZM10.4 0.399902C4.87711 0.399902 0.400024 4.87699 0.400024 10.3999C0.400024 15.9228 4.87711 20.3999 10.4 20.3999C15.9229 20.3999 20.4 15.9228 20.4 10.3999C20.4 4.87699 15.9229 0.399902 10.4 0.399902ZM10.4 14.4624C5.28127 14.4624 5.19169 14.0009 5.19169 10.3999C5.19169 6.79886 5.28127 6.3374 10.4 6.3374C15.5188 6.3374 15.6084 6.79886 15.6084 10.3999C15.6084 14.0009 15.5188 14.4624 10.4 14.4624Z" fill="white"/>
</svg>
